<?xml version="1.0" standalone="no"?>
<!DOCTYPE svg PUBLIC "-//W3C//DTD SVG 20010904//EN"
 "http://www.w3.org/TR/2001/REC-SVG-20010904/DTD/svg10.dtd">
<svg version="1.0" xmlns="http://www.w3.org/2000/svg"
 width="512.000000pt" height="512.000000pt" viewBox="0 0 512.000000 512.000000"
 preserveAspectRatio="xMidYMid meet">
<metadata>
Created by potrace 1.16, written by Peter Selinger 2001-2019
</metadata>
<g transform="translate(0.000000,512.000000) scale(0.100000,-0.100000)"
fill="#000000" stroke="none">
<path d="M1791 5101 c-190 -56 -368 -207 -460 -388 -14 -28 -28 -43 -40 -43
-34 0 -175 -78 -232 -129 -70 -62 -121 -136 -161 -231 -26 -63 -31 -92 -36
-183 l-5 -108 -38 -19 c-60 -31 -157 -117 -206 -183 -58 -79 -117 -203 -137
-290 -23 -98 -21 -245 5 -346 l21 -82 -54 -57 c-30 -31 -73 -88 -95 -127 -65
-109 -84 -180 -90 -325 -6 -150 13 -244 77 -378 l39 -82 -39 -73 c-57 -106
-80 -200 -80 -327 0 -167 53 -319 155 -444 l45 -56 0 -103 c0 -172 51 -322
156 -459 118 -153 329 -267 496 -268 46 0 48 -1 92 -63 120 -167 292 -281 486
-322 103 -22 259 -19 356 5 192 49 377 184 477 347 18 29 34 52 37 52 3 0 19
-23 37 -52 100 -163 285 -298 477 -347 97 -24 253 -27 356 -5 194 41 366 155
486 322 44 62 46 63 92 63 169 1 377 114 497 271 105 135 155 284 155 456 l0
103 45 56 c176 216 206 527 75 771 l-39 73 39 82 c64 134 83 228 77 378 -6
145 -25 216 -90 325 -22 39 -65 96 -95 127 l-54 57 21 82 c26 101 28 248 5
346 -20 87 -79 211 -137 290 -49 66 -146 152 -206 183 l-38 19 -5 108 c-5 91
-10 120 -36 183 -40 95 -91 169 -161 231 -57 51 -198 129 -232 129 -12 0 -26
15 -40 43 -95 188 -284 343 -479 392 -91 24 -271 16 -357 -14 -136 -48 -253
-133 -336 -241 -28 -36 -53 -65 -57 -65 -4 0 -29 29 -57 65 -83 108 -200 192
-336 241 -88 32 -285 37 -376 10z m360 -234 c129 -64 232 -185 281 -332 19
-56 21 -90 25 -487 3 -236 3 -428 1 -428 -2 0 -29 9 -61 20 -34 12 -82 20
-120 20 -56 0 -68 -3 -91 -26 -21 -21 -26 -36 -26 -74 0 -64 31 -96 103 -105
73 -10 131 -46 164 -103 l28 -47 3 -970 3 -970 -53 52 c-136 133 -334 213
-523 213 -65 0 -75 -3 -99 -26 -21 -21 -26 -36 -26 -73 1 -77 27 -97 148 -111
165 -18 282 -77 390 -196 103 -112 152 -239 152 -397 0 -135 -37 -252 -118
-370 -61 -87 -183 -181 -287 -219 -83 -30 -236 -36 -325 -13 -152 39 -296 150
-378 291 -50 86 -62 92 -197 96 -83 3 -110 8 -160 31 -125 58 -234 174 -287
306 -20 50 -23 74 -23 212 l0 157 -52 55 c-107 113 -153 220 -153 356 0 81 10
127 42 203 l20 47 42 -28 c114 -78 242 -121 363 -121 63 0 73 3 97 26 21 21
26 36 26 74 0 66 -31 97 -108 105 -141 15 -238 60 -331 155 -171 173 -201 438
-73 636 22 33 60 78 87 99 105 88 107 91 102 143 -2 26 -17 76 -32 112 -38 86
-46 234 -18 320 50 152 151 273 282 338 73 36 77 37 190 37 114 0 117 -1 192
-38 90 -45 174 -124 225 -210 39 -67 74 -165 74 -212 1 -108 35 -155 110 -155
38 0 53 5 74 26 24 24 26 34 26 104 0 255 -167 517 -404 634 -94 46 -180 66
-295 66 l-94 0 6 56 c11 103 81 212 175 273 131 84 309 82 429 -4 119 -87 149
-94 201 -50 63 53 48 126 -40 196 -62 49 -173 105 -229 114 -21 4 -39 11 -39
16 0 18 92 108 148 145 85 57 150 75 262 71 87 -2 102 -6 171 -40z m1137 25
c32 -11 84 -35 114 -56 56 -37 148 -127 148 -145 0 -5 -18 -12 -39 -16 -94
-16 -264 -122 -297 -186 -22 -43 -11 -91 27 -123 53 -45 83 -38 203 49 102 74
265 87 382 30 117 -57 209 -182 221 -299 l6 -56 -94 0 c-115 0 -201 -20 -295
-66 -237 -117 -404 -379 -404 -634 0 -70 2 -80 26 -104 21 -21 36 -26 74 -26
75 0 109 47 110 155 0 47 35 145 74 212 51 86 135 165 225 210 75 37 78 38
192 38 113 0 117 -1 190 -37 132 -66 236 -190 281 -337 29 -95 22 -232 -17
-321 -15 -36 -30 -86 -32 -112 -5 -52 -3 -55 102 -143 27 -21 65 -66 87 -99
129 -199 98 -465 -75 -637 -95 -96 -188 -139 -329 -154 -77 -8 -108 -39 -108
-105 0 -38 5 -53 26 -74 24 -23 34 -26 97 -26 121 0 249 43 363 121 l42 28 20
-47 c32 -76 42 -122 42 -203 0 -136 -44 -238 -155 -358 l-55 -61 6 -129 c6
-119 5 -136 -16 -202 -47 -145 -160 -273 -297 -336 -48 -22 -76 -28 -158 -31
-135 -4 -147 -10 -197 -96 -82 -141 -226 -252 -378 -291 -89 -23 -242 -17
-325 13 -104 38 -226 132 -287 219 -81 118 -118 235 -118 370 0 158 49 285
152 397 108 119 225 178 390 196 121 14 147 34 148 111 0 37 -5 52 -26 73 -24
23 -34 26 -99 26 -189 0 -387 -80 -523 -213 l-53 -52 3 970 3 970 28 47 c33
57 91 93 164 103 72 9 103 41 103 105 0 38 -5 53 -26 74 -23 23 -35 26 -91 26
-38 0 -86 -8 -120 -20 -32 -11 -59 -20 -61 -20 -2 0 -2 192 1 428 4 397 6 431
25 487 57 170 180 300 336 356 68 24 186 25 264 1z"/>
<path d="M1986 4264 c-21 -21 -26 -36 -26 -74 0 -38 5 -53 26 -74 21 -21 36
-26 74 -26 38 0 53 5 74 26 21 21 26 36 26 74 0 38 -5 53 -26 74 -21 21 -36
26 -74 26 -38 0 -53 -5 -74 -26z"/>
<path d="M1085 3433 c-27 -28 -27 -29 -22 -128 15 -294 224 -549 514 -625 l62
-16 -16 -31 c-44 -92 -127 -148 -243 -165 -91 -14 -120 -40 -120 -108 0 -38 5
-53 26 -74 24 -23 35 -26 94 -26 205 0 412 158 462 353 10 38 17 49 37 53 139
30 264 89 341 163 35 33 40 43 40 83 0 35 -6 51 -26 71 -48 48 -102 44 -174
-13 -21 -17 -68 -44 -105 -62 -93 -43 -228 -51 -332 -20 -130 40 -249 140
-307 257 -27 56 -40 110 -51 207 -8 77 -39 108 -105 108 -38 0 -53 -5 -75 -27z"/>
<path d="M1755 2010 c-177 -45 -311 -119 -434 -241 -79 -78 -161 -201 -161
-240 0 -61 47 -109 107 -109 39 0 66 21 112 88 80 117 192 210 313 260 71 30
144 46 260 58 77 7 108 37 108 104 0 38 -5 53 -26 74 -25 24 -32 26 -118 25
-51 -1 -122 -9 -161 -19z"/>
<path d="M1086 1204 c-37 -38 -37 -110 0 -148 15 -14 32 -26 38 -26 190 -6
358 -103 452 -263 39 -67 74 -165 74 -212 1 -108 35 -155 110 -155 38 0 53 5
74 26 24 24 26 34 26 104 0 365 -323 699 -676 700 -64 0 -74 -3 -98 -26z"/>
<path d="M2986 4264 c-21 -21 -26 -36 -26 -74 0 -38 5 -53 26 -74 21 -21 36
-26 74 -26 38 0 53 5 74 26 21 21 26 36 26 74 0 38 -5 53 -26 74 -21 21 -36
26 -74 26 -38 0 -53 -5 -74 -26z"/>
<path d="M3887 3434 c-19 -19 -27 -39 -31 -82 -15 -148 -58 -245 -149 -336
-101 -101 -207 -146 -341 -146 -122 0 -220 33 -307 101 -72 56 -125 60 -173
12 -20 -20 -26 -36 -26 -71 0 -40 5 -50 40 -83 77 -74 202 -133 341 -163 20
-4 27 -15 37 -53 50 -195 257 -353 462 -353 59 0 70 3 94 26 21 21 26 36 26
74 0 68 -29 94 -120 108 -116 17 -199 73 -243 165 l-16 31 62 16 c124 33 232
97 324 192 118 123 182 266 190 433 5 99 5 100 -22 128 -39 38 -111 39 -148 1z"/>
<path d="M3086 2004 c-21 -21 -26 -36 -26 -74 0 -67 31 -97 108 -104 116 -12
189 -28 260 -58 121 -50 233 -143 313 -260 21 -31 49 -64 61 -72 45 -32 124
-9 147 41 20 45 12 79 -37 154 -156 239 -444 399 -716 399 -77 0 -85 -2 -110
-26z"/>
<path d="M3795 1214 c-295 -71 -535 -379 -535 -684 0 -70 2 -80 26 -104 21
-21 36 -26 74 -26 75 0 109 47 110 155 0 47 35 145 74 212 94 160 262 257 452
263 6 0 23 12 38 26 21 21 26 36 26 74 0 38 -5 53 -26 74 -24 24 -33 26 -103
25 -42 0 -103 -7 -136 -15z"/>
</g>
</svg>
